<?xml version="1.0" encoding="UTF-8"?>
<svg viewBox="0 0 115 140" xmlns="http://www.w3.org/2000/svg" xmlns:xlink="http://www.w3.org/1999/xlink">
 <defs>
  <filter id="i" x="-.20956" y="-.21225" width="1.4191" height="1.4245">
   <feGaussianBlur stdDeviation="39.41731"/>
  </filter>
  <filter id="h" x="-.11356" y="-.12722" width="1.2271" height="1.2544">
   <feGaussianBlur stdDeviation="1.18932"/>
  </filter>
  <filter id="g" x="-.22187" y="-.32589" width="1.4437" height="1.6518">
   <feGaussianBlur stdDeviation="1.14978"/>
  </filter>
  <linearGradient id="a">
   <stop stop-color="#fff" offset="0"/>
   <stop stop-color="#f2f2f2" offset=".35858"/>
   <stop stop-color="#939393" offset="1"/>
  </linearGradient>
  <linearGradient id="f" x1="525.71" x2="23.852" gradientUnits="userSpaceOnUse">
   <stop stop-color="#3c0000" offset="0"/>
   <stop stop-color="#ca0a0a" offset="1"/>
  </linearGradient>
  <linearGradient id="e" x1="138.73" x2="628.24" gradientUnits="userSpaceOnUse">
   <stop stop-color="#fff" offset="0"/>
   <stop stop-color="#a8a8a8" offset="1"/>
  </linearGradient>
  <radialGradient id="b" cx="22.657" cy="346.69" r="91.24" gradientTransform="matrix(.03018 -1.1216 .88107 .02371 -283.49 360.94)" gradientUnits="userSpaceOnUse">
   <stop stop-color="#ff0" offset="0"/>
   <stop stop-color="#ff8a00" offset="1"/>
  </radialGradient>
  <radialGradient id="d" cx="293.05" cy="297.69" r="36.987" gradientTransform="matrix(1.6648 -3.1174e-7 2.4759e-7 2.2611 -194.83 -375.42)" gradientUnits="userSpaceOnUse" xlink:href="#a"/>
  <radialGradient id="c" cx="288.46" cy="279.95" r="36.987" gradientTransform="matrix(-4.3313e-7 1.9604 -1.7001 -5.9827e-7 768.98 -267.81)" gradientUnits="userSpaceOnUse" xlink:href="#a"/>
 </defs>
 <g transform="translate(-7.5615e-7 -912.49)">
  <path d="m91.832 921.15-17.434 26.326c-5.6692-5.5017-4.7323-19.408 2.2485-33.667l-0.09271-0.0529c-0.38984 0.63827-0.76443 1.2699-1.1404 1.93-9.1089 15.989-10.668 32.47-3.9085 38.126l-39.766 69.802c-0.4111 0.7216-0.15617 1.6307 0.55872 2.0379s1.6114 0.1546 2.0225-0.5673l39.766-69.802c8.3116 2.9363 21.708-6.8032 30.819-22.795 0.37606-0.66017 0.71285-1.3131 1.0632-1.9739l-0.0773-0.0445c-8.7059 13.276-20.19 21.173-27.814 19.102l13.755-28.422z" fill="#2e0202"/>
  <g transform="translate(-341.53 559.3)">
   <path d="m427.9 412.55c6.7257-2.3951 14.081-1.7296 18.191-2.5067-0.0995-1.2662-0.0397-1.4556-1.8043-2.2686 4.0854-1.5806 3.7023 0.6794 10.441 0.63342-3.5053 2.5717-1.8203 4.4042-8.3898 6.8233 1.0828-1.6612 0.55177-2.8511 0.15946-2.8269-5.1562 0.31809-15.89 0.42808-21.092 7.8645-6.0484 8.646 11.058 30.39-15.015 26.587l-0.41237-5.1782c11.974 4.0546 11.587 0.87067 10.179-8.4298s-0.48614-17.767 7.743-20.698z" fill="#3d0000"/>
   <path transform="matrix(.13821 0 0 .04407 347.14 467.81)" d="m525.71 229.51c0 123.08-101.06 222.86-225.71 222.86s-225.71-99.777-225.71-222.86 101.06-222.86 225.71-222.86 225.71 99.777 225.71 222.86z" fill="#1a1a1a" filter="url(#i)"/>
   <path transform="matrix(.16566 0 0 .2543 331.02 372.1)" d="m525.71 229.51c0 123.08-101.06 222.86-225.71 222.86s-225.71-99.777-225.71-222.86c0-86.021 49.362-160.66 121.64-197.81 6.5802-3.3818-20.473-46.001-13.533-48.742 24.216 30.947 48.36 34.233 55.879 32.127 19.618-5.4945 40.323-8.4353 61.724-8.4353 16.897 0 33.361 1.8332 49.198 5.3092 7.0834-0.56065 23.542 5.1492 68.527-42.172 6.5085-6.8465 1.8488 30.519-10.597 63.515 70.613 37.664 118.59 111.4 118.59 196.21z" fill="url(#f)"/>
   <path transform="matrix(.12964 0 0 .1682 339.75 410.18)" d="m525.71 229.51c0 123.08-101.06 222.86-225.71 222.86s-225.71-99.777-225.71-222.86 101.06-222.86 225.71-222.86 225.71 99.777 225.71 222.86z" fill="url(#e)"/>
   <path transform="matrix(.17069 0 0 .13053 320.39 350.11)" d="m330.04 297.69c0 27.891-16.56 50.501-36.987 50.501s-36.987-22.61-36.987-50.501 16.56-50.501 36.987-50.501 36.987 22.61 36.987 50.501z" fill="url(#d)"/>
   <path transform="matrix(.21367 0 0 .1634 325.06 340.14)" d="m330.04 297.69c0 27.891-16.56 50.501-36.987 50.501s-36.987-22.61-36.987-50.501 16.56-50.501 36.987-50.501 36.987 22.61 36.987 50.501z" fill="url(#c)"/>
   <path transform="matrix(-.1291 0 0 -.1291 381.18 450.61)" d="m116.65 402.25-182.48-5.6055 96.095-155.23 86.386 160.84z" fill="url(#b)"/>
   <path transform="matrix(.04892 0 0 .03741 356.08 377.83)" d="m330.04 297.69c0 27.891-16.56 50.501-36.987 50.501s-36.987-22.61-36.987-50.501 16.56-50.501 36.987-50.501 36.987 22.61 36.987 50.501z"/>
   <path transform="matrix(.04892 0 0 .03741 373.51 377.83)" d="m330.04 297.69c0 27.891-16.56 50.501-36.987 50.501s-36.987-22.61-36.987-50.501 16.56-50.501 36.987-50.501 36.987 22.61 36.987 50.501z"/>
   <path transform="matrix(.01081 0 0 .00827 385.06 386.11)" d="m330.04 297.69c0 27.891-16.56 50.501-36.987 50.501s-36.987-22.61-36.987-50.501 16.56-50.501 36.987-50.501 36.987 22.61 36.987 50.501z" fill="#fff"/>
   <path transform="matrix(.01081 0 0 .00827 367.95 385.73)" d="m330.04 297.69c0 27.891-16.56 50.501-36.987 50.501s-36.987-22.61-36.987-50.501 16.56-50.501 36.987-50.501 36.987 22.61 36.987 50.501z" fill="#fff"/>
  </g>
  <path d="m69.875 932.22c-0.57512 2.2648-1.0452 4.484-1.25 6.5312-0.66275 6.624 0.6611 11.734 3.5938 14.188l2.25 1.2812h0.03125c3.6048 1.2567 8.6832-0.22331 14.031-4.1562 1.6818-1.2368 3.3829-2.7584 5.0625-4.4375-0.46443 0.35023-0.94221 0.74386-1.4062 1.0625-5.0689 3.4806-10.105 5.1372-14.406 3.9688a1.1306 1.1306 0 0 1 -0.75 -1.5938l6.375-13.125-8.0625 12.156a1.1306 1.1306 0 0 1 -1.7188 0.1875c-3.1983-3.1038-4.38-8.3036-3.9688-14.438 0.03496-0.52144 0.16052-1.0893 0.21875-1.625z" fill="#800000" filter="url(#h)"/>
  <path d="m69.96875,944.875c.42413,3.25823 1.48339,5.74802 3.03125,7.0625l.03125.0312 1.875,1.0625h.03125c1.88352.64563 4.51282.27027 7.46875-.96875-1.69282.20835-3.3712.24654-4.96875-.1875a1.25719,1.25719 0 0,1 -.84375-1.6562 1.25719,1.25719 0 0,1 -.6875-1.71875l.03125-.0312-.59375-.375-.9375-.625-.78125.8125-.875.90625c-1.22123-1.18514-2.08574-2.69245-2.78125-4.3125z" fill="#f00" filter="url(#g)"/>
 </g>
</svg>
